<svg class="icon" viewBox="0 0 1024 1024" xmlns="http://www.w3.org/2000/svg" width="128" height="128"><path d="M769.591 318.487H251.302c-10.217 0-18.487 8.548-18.487 19.045 0 10.495 8.27 18.994 18.487 18.994h518.29c10.217 0 18.485-8.553 18.485-18.994.001-10.44-8.267-19.045-18.486-19.045zm18.487-96.34H232.815c-10.274 0-18.55 8.495-18.55 18.989 0 10.496 8.276 18.933 18.55 18.933h555.263c10.275 0 18.55-8.437 18.55-18.988 0-10.44-8.275-18.934-18.55-18.934zM944.892 420.27l-73.017-272.92a12.274 12.274 0 0 0-.613-1.887c-11.496-30.04-28.265-50.032-72.853-50.032l-577.146 1.61c-36.981 0-58.692 14.937-72.683 49.753-.279.779-.556 1.559-.724 2.277L75.448 427.767c-5.606 5.498-9.217 12.438-9.217 20.486v436.724c0 20.88 24.376 41.087 44.7 41.087H925.4c20.324 0 29.264-20.207 29.264-41.087V448.253c0-12.16-3.166-21.933-9.772-27.983zM732.555 728.61H288.339V617.554h444.216V728.61zm-55.53-277.636s-39.257.5-58.635.5H411.777c-19.378 0-67.907-.5-67.907-.5H121.76l61.525-290.851c7.552-18.493 14.713-25.046 38.033-25.046l577.202-1.662c25.653 0 30.82 6.549 37.982 24.986l62.633 292.572h-222.11v.001zm0 0" fill="#221D08"/></svg>