<svg class="icon" viewBox="0 0 1024 1024" xmlns="http://www.w3.org/2000/svg" width="128" height="128"><defs/><path d="M1012.185 836.923 561.23 108.308c-23.631-39.385-74.831-39.385-98.462 0L11.815 836.923c-27.569 45.292 0 108.308 49.231 108.308h901.908c49.23 0 78.77-63.016 49.23-108.308zM512 787.693c-33.477 0-59.077-25.6-59.077-59.078s25.6-59.077 59.077-59.077 59.077 25.6 59.077 59.077-25.6 59.077-59.077 59.077zm59.077-177.231c0 11.815-7.877 19.692-19.692 19.692h-78.77c-11.815 0-19.692-7.877-19.692-19.692v-256c0-11.816 7.877-19.693 19.692-19.693h78.77c11.815 0 19.692 7.877 19.692 19.693v256z"/></svg>