<svg class="icon" viewBox="0 0 1024 1024" xmlns="http://www.w3.org/2000/svg" width="200" height="200"><defs/><path d="M698.027 597.333C701.44 569.173 704 541.013 704 512c0-29.013-2.56-57.173-5.973-85.333H842.24c6.827 27.306 11.093 55.893 11.093 85.333s-4.266 58.027-11.093 85.333M622.507 834.56c25.6-47.36 45.226-98.56 58.88-151.893h125.866A342.613 342.613 0 0 1 622.507 834.56M611.84 597.333H412.16c-4.267-28.16-6.827-56.32-6.827-85.333 0-29.013 2.56-57.6 6.827-85.333h199.68c3.84 27.733 6.827 56.32 6.827 85.333 0 29.013-2.987 57.173-6.827 85.333M512 851.627c-35.413-51.2-64-107.947-81.493-168.96h162.986C576 743.68 547.413 800.427 512 851.627M341.333 341.333H216.747a338.048 338.048 0 0 1 184.32-151.893c-25.6 47.36-44.8 98.56-59.734 151.893M216.747 682.667h124.586C356.267 736 375.467 787.2 401.067 834.56a341.675 341.675 0 0 1-184.32-151.893m-34.987-85.334c-6.827-27.306-11.093-55.893-11.093-85.333s4.266-58.027 11.093-85.333h144.213C322.56 454.827 320 482.987 320 512c0 29.013 2.56 57.173 5.973 85.333M512 171.947c35.413 51.2 64 108.373 81.493 169.386H430.507C448 280.32 476.587 223.147 512 171.947m295.253 169.386H681.387a667.733 667.733 0 0 0-58.88-151.893c78.506 26.88 143.786 81.067 184.746 151.893M512 85.333c-235.947 0-426.667 192-426.667 426.667A426.667 426.667 0 0 0 512 938.667 426.667 426.667 0 0 0 938.667 512 426.667 426.667 0 0 0 512 85.333z"/></svg>