<svg class="icon" viewBox="0 0 1084 1024" xmlns="http://www.w3.org/2000/svg" width="211.719" height="200"><defs/><path d="M821.235 544.015c-1.287-129.73 105.791-191.892 110.553-194.98-60.103-88.031-153.796-100.13-187.258-101.545-79.794-7.98-155.599 46.976-196.01 46.976-40.412 0-102.832-45.689-168.984-44.53-86.872 1.287-167.052 50.579-211.84 128.442C77.35 535.135 144.53 767.31 232.561 894.337c42.986 62.162 94.337 132.046 161.647 129.6 64.865-2.573 89.318-41.956 167.696-41.956s100.386 41.957 169.112 40.67c69.756-1.287 114.029-63.45 156.757-125.869 49.42-72.2 69.755-142.085 70.914-145.56-1.545-.772-136.165-52.252-137.452-207.207zM692.278 163.45C728.056 120.077 752.123 59.974 745.559 0c-51.48 2.06-113.9 34.234-150.836 77.477-33.076 38.482-62.162 99.743-54.311 158.43 57.4 4.505 116.087-29.215 151.866-72.458z"/></svg>