<svg class="icon" viewBox="0 0 1024 1024" xmlns="http://www.w3.org/2000/svg" width="200" height="200"><defs/><path d="M505.6 246.58c2 1 3.6 3.4 6 3.4 2.2 0 5.6-.8 5.8-3 .4-2.8-3.8-4.6-6.4-5.8-3.4-1.4-7.8-2-10.999-.2-.8.4-1.6 1.4-1.2 2.2.6 2.6 4.6 2.2 6.8 3.4zm-43.796 3.4c2.4 0 4-2.4 6-3.4 2.2-1.2 6.2-.8 7-3.2.4-.8-.4-1.8-1.2-2.2-3.2-1.8-7.6-1.2-11 .2-2.6 1.2-6.8 3-6.4 5.8.2 2 3.6 3 5.6 2.8zm442.163 557.553c-7.199-7.999-10.599-23.198-14.398-39.396-3.6-16.199-7.8-33.598-20.999-44.797-2.6-2.2-5.2-4.2-7.999-5.8-2.6-1.599-5.4-2.999-8.2-3.999 18.4-54.595 11.2-108.99-7.399-158.187-22.798-60.195-62.595-112.79-92.992-148.787-34.197-42.997-67.394-83.793-66.794-143.988C686.186 170.786 695.385.2 533.598 0 328.815-.4 380.011 206.783 377.811 270.378c-3.4 46.796-12.799 83.593-44.996 129.39-37.797 44.996-90.993 117.59-116.19 193.383-12 35.797-17.599 72.194-12.4 106.591-12.998 11.6-22.797 29.398-33.197 40.397-8.399 8.6-20.598 11.799-33.997 16.599s-27.997 11.999-36.997 28.997c-4.2 7.8-5.6 16.199-5.6 24.798 0 7.8 1.2 15.799 2.4 23.598 2.4 16.199 5 31.398 1.6 41.597-10.399 28.797-11.799 48.796-4.4 63.394 7.6 14.6 22.799 20.999 40.197 24.598 34.598 7.2 81.594 5.4 118.59 24.998 39.597 20.799 79.794 28.198 111.791 20.799 23.198-5.2 42.197-19.199 51.796-40.397 24.998-.2 52.596-10.8 96.592-13.199 29.797-2.4 67.194 10.6 110.19 8.2 1.2 4.599 2.8 9.199 5 13.398v.2c16.599 33.397 47.596 48.596 80.594 45.996 33.197-2.6 68.194-21.998 96.592-55.795 27.197-32.797 71.994-46.396 101.791-64.395 14.799-8.999 26.798-20.198 27.798-36.597.8-16.398-8.8-34.597-30.998-59.395zM511.4 174.586c19.598-44.396 68.394-43.596 87.993-.8 12.999 28.398 7.2 61.795-8.6 80.793-3.2-1.6-11.799-5.2-25.197-9.799 2.2-2.4 6.199-5.4 7.799-9.199 9.6-23.598-.4-53.996-18.199-54.595-14.598-1-27.797 21.598-23.598 45.996-8.199-4-18.798-7-25.997-8.8-2-13.798-.6-29.197 5.8-43.596zm-81.393-22.998c20.198 0 41.596 28.398 38.197 66.994-7 2-14.2 5-20.399 9.2 2.4-17.799-6.6-40.197-19.198-39.197-16.799 1.4-19.598 42.396-3.6 56.195 2 1.6 3.8-.4-11.799 11-31.197-29.198-20.998-104.192 16.799-104.192zm-27.198 121.39c12.4-9.2 27.198-19.998 28.198-20.998 9.399-8.8 26.997-28.398 55.795-28.398 14.199 0 31.197 4.6 51.796 17.798 12.599 8.2 22.598 8.8 45.196 18.599 16.799 7 27.398 19.398 20.998 36.397-5.2 14.199-21.998 28.798-45.396 36.197-22.198 7.2-39.597 31.997-76.394 29.797-7.799-.4-13.998-2-19.198-4.2-15.999-6.999-24.398-20.798-39.997-29.997-17.198-9.599-26.397-20.798-29.397-30.597-2.8-9.8 0-17.999 8.4-24.598zm6.6 667.944c-5.4 70.194-87.793 68.795-150.588 35.997-59.795-31.597-137.188-12.999-152.987-43.796-4.8-9.4-4.8-25.398 5.2-52.796v-.4c4.799-15.198 1.2-31.997-1.2-47.796-2.4-15.598-3.6-29.997 1.8-39.996 6.999-13.4 16.998-18.199 29.597-22.598 20.598-7.4 23.598-6.8 39.197-19.799 10.999-11.399 18.998-25.798 28.597-35.997 10.2-10.999 19.999-16.198 35.397-13.799 16.199 2.4 30.198 13.6 43.797 31.998l39.196 71.194c18.999 39.796 86.193 96.792 81.994 137.788zm-2.8-51.795c-8.2-13.2-19.199-27.198-28.798-39.197 14.199 0 28.398-4.4 33.397-17.799 4.6-12.399 0-29.797-14.798-49.796-26.998-36.397-76.594-64.994-76.594-64.994-26.998-16.799-42.196-37.397-49.196-59.795s-6-46.596-.6-70.394c10.4-45.796 37.197-90.393 54.396-118.39 4.6-3.4 1.6 6.399-17.399 41.596-16.999 32.197-48.796 106.591-5.2 164.786 1.2-41.396 11-83.593 27.598-122.99 23.998-54.795 74.594-149.787 78.594-225.38 2.2 1.6 9.199 6.399 12.399 8.199 9.199 5.4 16.198 13.399 25.198 20.598 24.797 19.998 56.995 18.398 84.792 2.4 12.4-7 22.399-14.999 31.798-17.999 19.798-6.2 35.597-17.198 44.596-29.997 15.399 60.795 51.396 148.587 74.394 191.384 12.199 22.798 36.597 70.994 47.196 129.19 6.6-.2 13.999.799 21.798 2.799 27.598-71.394-23.398-148.388-46.596-169.786-9.4-9.2-9.8-13.199-5.2-12.999 25.198 22.398 58.396 67.394 70.395 117.99 5.6 23.198 6.6 47.396.8 71.394 32.797 13.6 71.794 35.797 61.394 69.595-4.4-.2-6.399 0-8.399 0 6.4-20.199-7.8-35.198-45.596-52.196-39.197-17.199-71.994-17.199-76.594 24.998-24.198 8.4-36.597 29.397-42.796 54.595-5.6 22.398-7.2 49.396-8.8 79.794-1 15.398-7.199 35.997-13.598 57.995-64.195 45.796-153.387 65.794-228.581 14.399zm514.757-22.999c-1.8 33.598-82.393 39.797-126.39 92.993-26.397 31.397-58.795 48.796-87.192 50.995s-52.996-9.599-67.395-38.596c-9.399-22.198-4.8-46.196 2.2-72.594 7.4-28.398 18.399-57.595 19.798-81.194 1.6-30.397 3.4-56.995 8.4-77.393 5.2-20.598 13.199-34.397 27.397-42.197.6-.4 1.4-.6 2-1 1.6 26.398 14.6 53.196 37.597 58.996 25.198 6.6 61.395-15 76.794-32.598 17.998-.6 31.397-1.8 45.196 10.2 19.798 16.998 14.199 60.594 34.197 83.193 21.198 23.198 27.998 38.996 27.398 49.195zM410.608 297.376c4 3.8 9.4 9 16 14.199 13.198 10.399 31.596 21.198 54.595 21.198 23.198 0 44.996-11.8 63.594-21.598 9.8-5.2 21.798-14 29.598-20.799s11.799-12.599 6.2-13.198-5.2 5.2-12 10.199c-8.799 6.4-19.398 14.798-27.797 19.598-14.8 8.4-38.997 20.398-59.795 20.398s-37.397-9.599-49.796-19.398c-6.2-5-11.4-10-15.399-13.799-3-2.8-3.8-9.2-8.6-9.8-2.799-.2-3.599 7.4 3.4 13z"/></svg>