<svg class="icon" viewBox="0 0 1024 1024" xmlns="http://www.w3.org/2000/svg" width="200" height="200"><defs/><path d="m615.879 177.495 42.303-61.522c1.812-2.62 1.146-6.252-1.473-8.063l-1.054-.727c-2.62-1.821-6.232-1.146-8.043 1.474l-43.522 63.291c-28.427-12.361-60.14-19.269-93.601-19.269-31.754 0-61.951 6.222-89.233 17.427L379.67 109.63c-1.8-2.62-5.423-3.285-8.043-1.474l-1.054.727c-2.62 1.811-3.285 5.444-1.484 8.074l40.216 58.461c-63.23 30.3-108.665 88.076-117.916 156.3h438.2c-9.035-66.7-52.669-123.421-113.71-154.222zm-197.662 88.127c-12.054 0-21.837-9.814-21.837-21.91 0-12.095 9.783-21.898 21.837-21.898 12.065 0 21.837 9.803 21.837 21.899 0 12.095-9.772 21.909-21.837 21.909zm188.493 0c-12.054 0-21.837-9.814-21.837-21.91 0-12.095 9.783-21.898 21.837-21.898 12.065 0 21.837 9.803 21.837 21.899 0 12.095-9.772 21.909-21.837 21.909zM260.904 419.506v179.447c0 30.761-19.596 55.934-43.562 55.934h-9.68c-23.956 0-43.563-25.173-43.563-55.934V419.506c0-30.76 19.607-55.923 43.563-55.923h9.68c23.966 0 43.562 25.163 43.562 55.923zm598.992 1.064v179.448c0 30.77-19.596 55.934-43.562 55.934h-9.68c-23.956 0-43.562-25.164-43.562-55.934V420.57c0-30.76 19.606-55.924 43.562-55.924h9.68c23.966 0 43.562 25.163 43.562 55.924zm-126.961-59.74v354.074c0 24.58-20.047 44.688-44.555 44.688h-36.747v102.32c0 30.761-19.606 55.924-43.562 55.924h-9.68c-23.956 0-43.563-25.163-43.563-55.924v-102.32h-81.864v101.144c0 30.76-19.596 55.934-43.562 55.934h-9.68c-23.956 0-43.563-25.174-43.563-55.934V759.592h-40.062c-24.508 0-44.555-20.108-44.555-44.688V360.83h441.393z"/></svg>